<svg role="img" viewBox="0 0 24 24" xmlns="http://www.w3.org/2000/svg"><title>Processing3 icon</title><path d="M2.392 12.453c-.123.04-.515.093-.877.117-.363.017-.854.052-1.088.07L0 12.675l.035.362c.105 1 .363 2.163.673 3.016.245.673.83 1.883.877 1.83.047-.047 1.638-5.36 1.638-5.454 0-.082-.58-.064-.83.024zm-.573-1.97c-.018.04-.421.216-.907.386l-.877.304-.017.63L0 12.43h.251c.369 0 2.99-.175 3.013-.198.035-.03-1.275-1.614-1.328-1.614-.03 0-.059-.047-.07-.105-.018-.058-.035-.07-.047-.03zm2.433-.889c-.193.076-.363.164-.38.193-.018.03-.427.193-.913.368-.48.17-.889.316-.9.322-.047.04 1.35 1.718 1.403 1.683.036-.017.047-.076.03-.117-.018-.046.24-.637.579-1.309.339-.678.614-1.24.614-1.257 0-.052-.076-.029-.433.117zm-3.83-.713C.274 9.267 0 10.91.075 10.91c.064 0 1.415-.473 1.527-.537.093-.047.099-.07.035-.111-.047-.03-.053-.053-.024-.053.035 0-.017-.07-.117-.152-.093-.088-.134-.134-.087-.111.046.018.023-.018-.059-.094-.082-.07-.14-.151-.129-.175.006-.03-.011-.047-.04-.04-.053.017-.504-.533-.626-.76L.48 8.722zm.613-1.789C.907 7.356.532 8.384.532 8.49c0 .07.731 1.046 1.328 1.777.023.023 2.316-.743 2.731-.912l.17-.065-.363-.245c-.199-.135-.415-.257-.474-.27-.064-.01-.707-.432-1.432-.928-.726-.503-1.328-.912-1.346-.912a.503.503 0 00-.11.157zM8.165.61a11.905 11.905 0 00-4.627 2.9c-.935.935-1.649 1.899-2.152 2.881l-.152.304.369.257c2.199 1.56 3.34 2.32 3.386 2.25.181-.28.754-1.338.772-1.431.017-.059.333-.632.708-1.275C7.685 4.421 9.615 1.183 9.726 1.02l.106-.158-.193-.146c-.112-.082-.24-.152-.287-.152-.053 0-.123-.04-.164-.087C9.078.34 8.872.37 8.165.61zM13.399.3c-.339.076-1.21.263-1.941.415-.737.152-1.334.292-1.334.31 0 .018 1.006.532 2.24 1.14 1.228.608 2.2 1.116 2.152 1.134-.04.012-1.117-.491-2.386-1.122a109.526 109.526 0 00-2.328-1.134c-.14.187-.848 1.508-.848 1.584 0 .105-3.9 6.722-3.983 6.751-.029.012.351.456.843.994.485.532 1.093 1.192 1.345 1.461.245.269.45.52.45.555 0 .094-.24-.146-1.509-1.52-.626-.683-1.152-1.233-1.17-1.221-.029.035.293 2.63.334 2.677.029.035 1.66.187 2.462.228.082.006-.012.03-.205.053-.193.029-.754.011-1.286-.03-.515-.035-.942-.064-.954-.058-.005.006.17 1.531.398 3.384.222 1.86.41 3.45.404 3.531-.012.41-.135-.403-.492-3.297a349.756 349.756 0 00-.415-3.367l-.035-.269-.561-.04c-.813-.059-.895-.158-.112-.135.597.018.626.018.626-.1 0-.233-.251-2.279-.286-2.32-.018-.023-.31.503-.644 1.17-.333.666-.637 1.238-.684 1.273-.111.088-.088.164.988 3.239.954 2.735 1.012 2.91.96 2.864-.018-.018-.486-1.333-1.036-2.923a216.776 216.776 0 00-1.029-2.917c-.012-.011-.035-.011-.053 0-.046.047-1.082 3.63-1.082 3.747 0 .065-.105.462-.234.889-.128.427-.234.824-.234.888 0 .345 1.357 2.017 2.299 2.841l.333.292.638-.21c.684-.228.73-.24.684-.158-.017.03-.286.14-.59.246-.305.105-.55.222-.539.257.047.128 1.404.994 2.118 1.344 2.631 1.292 5.65 1.602 8.363.854 1.234-.34 2.51-.906 3.51-1.567 2.9-1.911 4.795-4.887 5.328-8.347.128-.86.128-2.531 0-3.361-.217-1.362-.527-2.367-1.088-3.554-.187-.392-.357-.713-.375-.713-.017 0-1.21-.38-2.643-.848-2.369-.771-3.042-1.011-2.854-1.023.035 0 1.245.38 2.69.848 1.445.468 2.644.842 2.673.83.047-.012-.538-.894-.883-1.327C19.687 2.387 17.242.844 14.65.271c-.62-.134-.497-.14-1.252.03zm1.843 3.221c.532.14.935.35 1.304.696.398.368.62.742.743 1.262.339 1.456-.34 2.841-1.743 3.548l-.34.17.416.134c.824.263 1.52.906 1.813 1.678.187.48.228 1.338.088 1.905-.34 1.403-1.474 2.467-3.083 2.87-.432.106-1.544.234-1.626.182-.035-.018-.058-.333-.058-.708v-.666h.368c1.732-.006 2.93-1.128 2.761-2.595-.053-.503-.228-.865-.561-1.175-.463-.427-1.024-.62-2.053-.702l-.515-.04V8.868l.222-.035c.971-.157 1.772-.502 2.176-.94.398-.433.556-.837.55-1.427 0-.392-.03-.561-.135-.807-.175-.391-.567-.742-.959-.859-.386-.117-1.146-.111-1.567.006l-.334.093-.035.299c-.023.17-.064.496-.105.724l-.065.427h-.976V3.89l.216-.093c.293-.117 1.035-.304 1.492-.369.49-.07 1.567-.017 2.006.094zm-3.948 10.335v4.927l.427.041c.228.018.649.076.936.129l.508.093v1.1H7.428l.017-.544.018-.538.468-.094c.257-.052.672-.117.924-.14l.45-.047v-8.452l-.275-.035c-.503-.065-1.438-.217-1.514-.246-.065-.023-.082-.17-.082-.578v-.55h3.86zM7.13 17.117c-.398 1.888-.743 3.437-.767 3.437-.029 0-.029-.163-.005-.368a3.98 3.98 0 00.035-.508c-.006-.082.31-1.684.707-3.56.702-3.367.714-3.408.731-2.923.018.438-.058.842-.701 3.922zm4.368 3.379c-.233.023.024.04.76.052.685.006 1.077.03 1.024.065-.052.023-1.655.064-3.567.076-1.913.017-3.24.011-2.954-.012.292-.023.45-.047.357-.053-.117-.005-.158-.029-.117-.07.052-.052 1.345-.082 3.854-.093.62 0 .86.011.643.035zM11.001.014C10.352.09 9.492.23 9.422.27c-.058.035-.017.093.146.245.123.106.258.217.305.24.04.03.064.07.046.105-.058.082.065.065 1.147-.175.561-.123 1.386-.298 1.836-.392.725-.146.796-.17.614-.21-.228-.053-2.193-.111-2.515-.07z"/></svg>